<?xml version="1.0" encoding="UTF-8"?>
<svg width="16px" height="16px" viewBox="0 0 16 16" version="1.1" xmlns="http://www.w3.org/2000/svg" xmlns:xlink="http://www.w3.org/1999/xlink">
    <!-- Generator: Sketch 52.2 (67145) - http://www.bohemiancoding.com/sketch -->
    <title>Artboard</title>
    <desc>Created with Sketch.</desc>
    <g id="Artboard" stroke="none" stroke-width="1" fill="none" fill-rule="evenodd">
        <path d="M7.99786229,10 L7.99786229,10 C8.82973749,10 9.50410559,10.6743681 9.50410559,11.5062433 C9.50410559,11.5368658 9.50317174,11.5674812 9.50130534,11.5980468 L9.289565,15.0656673 C9.24815136,15.7438886 8.68603567,16.2727273 8.00655117,16.2727273 L8.00655117,16.2727273 C7.32655697,16.2727273 6.76352419,15.7444884 6.72020661,15.0658753 L6.49882883,11.5977714 C6.44598232,10.7698781 7.0742819,10.0558974 7.90217522,10.0030509 C7.93403039,10.0010175 7.96594228,10 7.99786229,10 Z" id="Rectangle" fill="#FFFFFF"></path>
        <circle id="Oval" fill="#FFFFFF" cx="8" cy="7.6" r="2"></circle>
        <path d="M10.1740783,14.6037736 C12.9757274,13.6927121 15,11.0685139 15,7.97332339 C15,4.12206322 11.8659932,1 8,1 C4.13400675,1 1,4.12206322 1,7.97332339 C1,11.0495974 2.99960518,13.6606185 5.77464154,14.5868778" id="Path" stroke="#FFFFFF"></path>
        <path d="M9.55291307,12.7169811 C11.554091,12.0662229 13,10.1917957 13,7.98094528 C13,5.23004516 10.7614237,3 8,3 C5.23857625,3 3,5.23004516 3,7.98094528 C3,10.1782839 4.42828942,12.0432989 6.41045824,12.7049127" id="Path" stroke="#FFFFFF"></path>
    </g>
</svg>